<mxfile host="app.diagrams.net" modified="2023-12-16T01:25:21.300Z" agent="Mozilla/5.0 (Macintosh; Intel Mac OS X 10_15_7) AppleWebKit/537.36 (KHTML, like Gecko) Chrome/120.0.0.0 Safari/537.36" etag="iSXSZm8smwXkMtPY_HKi" version="22.1.11" type="github">
  <diagram name="第 1 页" id="W7ZPcpOYjEc_MX2OGwLW">
    <mxGraphModel dx="1253" dy="756" grid="1" gridSize="10" guides="1" tooltips="1" connect="1" arrows="1" fold="1" page="1" pageScale="1" pageWidth="1169" pageHeight="1654" math="0" shadow="0">
      <root>
        <mxCell id="0" />
        <mxCell id="1" parent="0" />
        <mxCell id="F8z5ST_ahkAq_tScqg6--8" value="" style="endArrow=none;html=1;rounded=0;sketch=1;hachureGap=4;jiggle=2;curveFitting=1;fontFamily=Architects Daughter;fontSource=https%3A%2F%2Ffonts.googleapis.com%2Fcss%3Ffamily%3DArchitects%2BDaughter;fontSize=16;" edge="1" parent="1">
          <mxGeometry width="50" height="50" relative="1" as="geometry">
            <mxPoint x="440" y="880" as="sourcePoint" />
            <mxPoint x="440" y="360" as="targetPoint" />
          </mxGeometry>
        </mxCell>
        <mxCell id="F8z5ST_ahkAq_tScqg6--9" value="" style="group" vertex="1" connectable="0" parent="1">
          <mxGeometry x="180" y="590" width="130" height="90" as="geometry" />
        </mxCell>
        <mxCell id="F8z5ST_ahkAq_tScqg6--1" value="/" style="rounded=0;whiteSpace=wrap;html=1;sketch=1;hachureGap=4;jiggle=2;curveFitting=1;fontFamily=Architects Daughter;fontSource=https%3A%2F%2Ffonts.googleapis.com%2Fcss%3Ffamily%3DArchitects%2BDaughter;fontSize=20;direction=west;" vertex="1" parent="F8z5ST_ahkAq_tScqg6--9">
          <mxGeometry width="130" height="50" as="geometry" />
        </mxCell>
        <mxCell id="F8z5ST_ahkAq_tScqg6--3" value="根目录" style="text;html=1;strokeColor=none;fillColor=none;align=center;verticalAlign=middle;whiteSpace=wrap;rounded=0;fontSize=20;fontFamily=Architects Daughter;" vertex="1" parent="F8z5ST_ahkAq_tScqg6--9">
          <mxGeometry x="5" y="70" width="120" height="20" as="geometry" />
        </mxCell>
        <mxCell id="F8z5ST_ahkAq_tScqg6--10" value="" style="endArrow=classic;html=1;rounded=0;sketch=1;hachureGap=4;jiggle=2;curveFitting=1;fontFamily=Architects Daughter;fontSource=https%3A%2F%2Ffonts.googleapis.com%2Fcss%3Ffamily%3DArchitects%2BDaughter;fontSize=16;exitX=0;exitY=0.5;exitDx=0;exitDy=0;" edge="1" parent="1" source="F8z5ST_ahkAq_tScqg6--1">
          <mxGeometry width="50" height="50" relative="1" as="geometry">
            <mxPoint x="560" y="650" as="sourcePoint" />
            <mxPoint x="440" y="615" as="targetPoint" />
          </mxGeometry>
        </mxCell>
        <mxCell id="F8z5ST_ahkAq_tScqg6--12" value="" style="group;fontFamily=Comic Sans MS;" vertex="1" connectable="0" parent="1">
          <mxGeometry x="440" y="340" width="301" height="50" as="geometry" />
        </mxCell>
        <mxCell id="F8z5ST_ahkAq_tScqg6--4" value="&lt;font face=&quot;Comic Sans MS&quot;&gt;/Applications&lt;/font&gt;" style="rounded=0;whiteSpace=wrap;html=1;sketch=1;hachureGap=4;jiggle=2;curveFitting=1;fontFamily=Courier New;fontSize=20;direction=west;" vertex="1" parent="F8z5ST_ahkAq_tScqg6--12">
          <mxGeometry x="100" width="201" height="50" as="geometry" />
        </mxCell>
        <mxCell id="F8z5ST_ahkAq_tScqg6--11" value="" style="endArrow=classic;html=1;rounded=0;sketch=1;hachureGap=4;jiggle=2;curveFitting=1;fontFamily=Architects Daughter;fontSource=https%3A%2F%2Ffonts.googleapis.com%2Fcss%3Ffamily%3DArchitects%2BDaughter;fontSize=16;entryX=1;entryY=0.5;entryDx=0;entryDy=0;" edge="1" parent="F8z5ST_ahkAq_tScqg6--12" target="F8z5ST_ahkAq_tScqg6--4">
          <mxGeometry width="50" height="50" relative="1" as="geometry">
            <mxPoint y="20" as="sourcePoint" />
            <mxPoint x="160" y="250" as="targetPoint" />
          </mxGeometry>
        </mxCell>
        <mxCell id="F8z5ST_ahkAq_tScqg6--13" value="这个目录中安装了供计算机所有用户使用的应用程序。&lt;br&gt;App Store 会自动将用户购买的 App 安装到此目录中。&lt;br&gt;子目录 &lt;font face=&quot;Comic Sans MS&quot;&gt;Utilities&lt;/font&gt; 包含了" style="shape=note;whiteSpace=wrap;html=1;backgroundOutline=1;darkOpacity=0.05;sketch=1;hachureGap=4;jiggle=2;curveFitting=1;fontFamily=Architects Daughter;fontSource=https%3A%2F%2Ffonts.googleapis.com%2Fcss%3Ffamily%3DArchitects%2BDaughter;fontSize=20;" vertex="1" parent="1">
          <mxGeometry x="810" y="310" width="580" height="100" as="geometry" />
        </mxCell>
        <mxCell id="F8z5ST_ahkAq_tScqg6--14" value="" style="group" vertex="1" connectable="0" parent="1">
          <mxGeometry x="440" y="430" width="301" height="50" as="geometry" />
        </mxCell>
        <mxCell id="F8z5ST_ahkAq_tScqg6--15" value="&lt;font face=&quot;Comic Sans MS&quot;&gt;/Library&lt;/font&gt;" style="rounded=0;whiteSpace=wrap;html=1;sketch=1;hachureGap=4;jiggle=2;curveFitting=1;fontFamily=Courier New;fontSize=20;direction=west;" vertex="1" parent="F8z5ST_ahkAq_tScqg6--14">
          <mxGeometry x="100" width="201" height="50" as="geometry" />
        </mxCell>
        <mxCell id="F8z5ST_ahkAq_tScqg6--16" value="" style="endArrow=classic;html=1;rounded=0;sketch=1;hachureGap=4;jiggle=2;curveFitting=1;fontFamily=Architects Daughter;fontSource=https%3A%2F%2Ffonts.googleapis.com%2Fcss%3Ffamily%3DArchitects%2BDaughter;fontSize=16;entryX=1;entryY=0.5;entryDx=0;entryDy=0;" edge="1" parent="F8z5ST_ahkAq_tScqg6--14" target="F8z5ST_ahkAq_tScqg6--15">
          <mxGeometry width="50" height="50" relative="1" as="geometry">
            <mxPoint y="20" as="sourcePoint" />
            <mxPoint x="160" y="250" as="targetPoint" />
          </mxGeometry>
        </mxCell>
      </root>
    </mxGraphModel>
  </diagram>
</mxfile>
